<svg xmlns="http://www.w3.org/2000/svg" viewBox="0 0 487.35 77.96"><defs><style>.cls-1{fill:#5009dc;}</style></defs><g id="Calque_2" data-name="Calque 2"><g id="Calque_1-2" data-name="Calque 1"><path d="M48.53,18.54V61.8H37l-1.27-3.06a20.49,20.49,0,0,1-13.06,4.53C9.46,63.27,0,53.62,0,40.17S9.46,17.24,22.68,17.24A20.5,20.5,0,0,1,35.9,21.89l1.53-3.35ZM35.09,39.85a9.39,9.39,0,0,0-9.57-9.72A9.37,9.37,0,0,0,16,39.85a9.4,9.4,0,0,0,9.57,9.75A9.39,9.39,0,0,0,35.09,39.85Z"/><path d="M102,18.54,84.61,61.8H71.11L53.49,18.54H69.82L78,44.16l8.09-25.62Z"/><path d="M105.7,18.54h15.45V61.8H105.7ZM107.25,0h13.9V12.36h-13.9Z"/><path d="M174.06,18.54,156.67,61.8h-13.5L125.54,18.54h16.33l8.18,25.62,8.08-25.62Z"/><path d="M238.58,18.54V56.33c0,13.36-8.64,21.63-22.52,21.63-11.92,0-20.26-6.08-22.2-16.16h14c1,2.85,4.59,4.38,8.1,4.38,4.85,0,8.75-3.12,8.75-8.18V56.74a20.26,20.26,0,0,1-11,3.19c-12,0-21-9.07-21-21.37,0-12.12,8.95-21.38,21-21.38A20.11,20.11,0,0,1,227,22.11l1.84-3.57Zm-23,29.36c5.29,0,9.09-3.92,9.09-9.37s-3.79-9.32-9.09-9.32a8.92,8.92,0,0,0-9.13,9.32c0,5.45,3.79,9.37,9.13,9.37Z"/><path d="M275.67,18.54V32.45h-4.6c-5.47,0-7.77,2.27-7.77,7.71V61.8H247.85V17h9.79l2.3,6.23c3-3.49,6.69-4.95,11.78-4.69Z"/><path d="M278,39.86c0-13.25,10-22.78,24-22.78s24,9.53,24,22.78-10.07,22.78-24,22.78S278,53.07,278,39.86Zm24,9.55c5.37,0,9.22-3.89,9.22-9.55s-3.85-9.54-9.22-9.54-9.22,3.89-9.22,9.54,3.85,9.55,9.22,9.55Z"/><path d="M332.83,42.94V18.54h13.91V42.3c0,4.52,2.37,7.17,6.2,7.17s6.16-2.7,6.16-7.17V18.54h15.45v24.4c0,12-8.33,19.76-20.83,19.76S332.83,54.91,332.83,42.94Z"/><path d="M429.1,40.11c0,13.44-8.93,23-21.42,23a18.31,18.31,0,0,1-9.95-2.87v17H383.82V18.54h9.57L395.15,22a18.32,18.32,0,0,1,12.53-4.84C420.17,17.13,429.1,26.67,429.1,40.11Zm-13.5-.25a9.57,9.57,0,1,0-19.14,0,9.57,9.57,0,1,0,19.14,0Z"/><path class="cls-1" d="M439.45,51h47.9V61.8h-47.9Z"/></g></g></svg>